<svg width="1364" height="683" xmlns="http://www.w3.org/2000/svg"><g><path d="M-118,-131L-130,248L-101,49Z" fill="#f9fff7" stroke="#f9fff7"/><path d="M-118,-131L-101,49L60,-99Z" fill="#fbfef9" stroke="#fbfef9"/><path d="M-118,-131L60,-99L259,-135Z" fill="#f0f9ee" stroke="#f0f9ee"/><path d="M60,-99L-101,49L17,109Z" fill="#f4fcf2" stroke="#f4fcf2"/><path d="M60,-99L17,109L244,16Z" fill="#ebf8e8" stroke="#ebf8e8"/><path d="M60,-99L244,16L259,-135Z" fill="#e5f5e2" stroke="#e5f5e2"/><path d="M259,-135L244,16L326,-100Z" fill="#dcf2d9" stroke="#dcf2d9"/><path d="M259,-135L326,-100L716,-75Z" fill="#c8e8c7" stroke="#c8e8c7"/><path d="M259,-135L716,-75L807,-73Z" fill="#b4dfb8" stroke="#b4dfb8"/><path d="M259,-135L807,-73L1310,-68Z" fill="#9bd3ab" stroke="#9bd3ab"/><path d="M259,-135L1310,-68L1607,-69Z" fill="#83b998" stroke="#83b998"/><path d="M326,-100L244,16L397,66Z" fill="#d6efd4" stroke="#d6efd4"/><path d="M326,-100L397,66L579,-25Z" fill="#c8e8c7" stroke="#c8e8c7"/><path d="M326,-100L579,-25L716,-75Z" fill="#bae2bb" stroke="#bae2bb"/><path d="M579,-25L397,66L563,96Z" fill="#b8e4b7" stroke="#b8e4b7"/><path d="M579,-25L563,96L681,87Z" fill="#acdeaf" stroke="#acdeaf"/><path d="M579,-25L681,87L716,-75Z" fill="#acdbb4" stroke="#acdbb4"/><path d="M716,-75L681,87L769,107Z" fill="#9fd7aa" stroke="#9fd7aa"/><path d="M716,-75L769,107L807,-73Z" fill="#9fd5ad" stroke="#9fd5ad"/><path d="M807,-73L769,107L932,-36Z" fill="#97d0a8" stroke="#97d0a8"/><path d="M807,-73L932,-36L1129,-63Z" fill="#8cc4a0" stroke="#8cc4a0"/><path d="M807,-73L1129,-63L1310,-68Z" fill="#81b796" stroke="#81b796"/><path d="M932,-36L769,107L872,201Z" fill="#8acd99" stroke="#8acd99"/><path d="M932,-36L872,201L1016,39Z" fill="#85c596" stroke="#85c596"/><path d="M932,-36L1016,39L1129,-63Z" fill="#86bd9b" stroke="#86bd9b"/><path d="M1129,-63L1016,39L1144,81Z" fill="#7db692" stroke="#7db692"/><path d="M1129,-63L1144,81L1310,-68Z" fill="#80ac8e" stroke="#80ac8e"/><path d="M1310,-68L1144,81L1319,123Z" fill="#7aa683" stroke="#7aa683"/><path d="M1310,-68L1319,123L1418,-22Z" fill="#7e9d81" stroke="#7e9d81"/><path d="M1310,-68L1418,-22L1607,-69Z" fill="#809380" stroke="#809380"/><path d="M1418,-22L1319,123L1421,114Z" fill="#779975" stroke="#779975"/><path d="M1418,-22L1421,114L1528,131Z" fill="#779274" stroke="#779274"/><path d="M1418,-22L1528,131L1607,-69Z" fill="#7e8c7e" stroke="#7e8c7e"/><path d="M1607,-69L1528,131L1633,186Z" fill="#768573" stroke="#768573"/><path d="M-101,49L-130,248L17,109Z" fill="#ecfee6" stroke="#ecfee6"/><path d="M17,109L-130,248L80,266Z" fill="#d1f7ce" stroke="#d1f7ce"/><path d="M17,109L80,266L177,221Z" fill="#caf3c6" stroke="#caf3c6"/><path d="M17,109L177,221L244,16Z" fill="#dbf6d4" stroke="#dbf6d4"/><path d="M244,16L177,221L323,266Z" fill="#c5f0bf" stroke="#c5f0bf"/><path d="M244,16L323,266L397,66Z" fill="#c9efc2" stroke="#c9efc2"/><path d="M397,66L323,266L511,266Z" fill="#a7e5a4" stroke="#a7e5a4"/><path d="M397,66L511,266L563,96Z" fill="#aee4aa" stroke="#aee4aa"/><path d="M563,96L511,266L657,241Z" fill="#91db93" stroke="#91db93"/><path d="M563,96L657,241L681,87Z" fill="#9ddc9f" stroke="#9ddc9f"/><path d="M681,87L657,241L769,107Z" fill="#94d89a" stroke="#94d89a"/><path d="M769,107L657,241L872,201Z" fill="#80d18c" stroke="#80d18c"/><path d="M1016,39L872,201L1015,187Z" fill="#78c288" stroke="#78c288"/><path d="M1016,39L1015,187L1144,81Z" fill="#76ba89" stroke="#76ba89"/><path d="M1144,81L1015,187L1107,250Z" fill="#64b477" stroke="#64b477"/><path d="M1144,81L1107,250L1246,195Z" fill="#63ac71" stroke="#63ac71"/><path d="M1144,81L1246,195L1319,123Z" fill="#70a877" stroke="#70a877"/><path d="M1319,123L1246,195L1446,249Z" fill="#5f9a61" stroke="#5f9a61"/><path d="M1319,123L1446,249L1421,114Z" fill="#679664" stroke="#679664"/><path d="M1421,114L1446,249L1528,131Z" fill="#678f63" stroke="#678f63"/><path d="M1528,131L1446,249L1633,186Z" fill="#5f865d" stroke="#5f865d"/><path d="M-130,248L-73,807L-81,465Z" fill="#88ca9f" stroke="#88ca9f"/><path d="M-130,248L-81,465L-98,342Z" fill="#aee9b9" stroke="#aee9b9"/><path d="M-130,248L-98,342L80,266Z" fill="#bdf1be" stroke="#bdf1be"/><path d="M80,266L-98,342L127,401Z" fill="#a6e7ae" stroke="#a6e7ae"/><path d="M80,266L127,401L177,221Z" fill="#a9e9ab" stroke="#a9e9ab"/><path d="M177,221L127,401L284,429Z" fill="#93df9c" stroke="#93df9c"/><path d="M177,221L284,429L323,266Z" fill="#9ae39c" stroke="#9ae39c"/><path d="M323,266L284,429L395,411Z" fill="#7ed68b" stroke="#7ed68b"/><path d="M323,266L395,411L511,266Z" fill="#85d98b" stroke="#85d98b"/><path d="M511,266L395,411L472,429Z" fill="#6ece7d" stroke="#6ece7d"/><path d="M511,266L472,429L727,346Z" fill="#67cb75" stroke="#67cb75"/><path d="M511,266L727,346L657,241Z" fill="#71d17b" stroke="#71d17b"/><path d="M657,241L727,346L788,347Z" fill="#5ec771" stroke="#5ec771"/><path d="M657,241L788,347L872,201Z" fill="#66cb76" stroke="#66cb76"/><path d="M872,201L788,347L948,340Z" fill="#53be6a" stroke="#53be6a"/><path d="M872,201L948,340L1015,187Z" fill="#5cbd6f" stroke="#5cbd6f"/><path d="M1015,187L948,340L1107,250Z" fill="#50b365" stroke="#50b365"/><path d="M1107,250L948,340L1116,435Z" fill="#34a555" stroke="#34a555"/><path d="M1107,250L1116,435L1325,427Z" fill="#299448" stroke="#299448"/><path d="M1107,250L1325,427L1246,195Z" fill="#409c50" stroke="#409c50"/><path d="M1246,195L1325,427L1446,249Z" fill="#409148" stroke="#409148"/><path d="M1446,249L1325,427L1437,401Z" fill="#2c803a" stroke="#2c803a"/><path d="M1446,249L1437,401L1587,329Z" fill="#367c3f" stroke="#367c3f"/><path d="M1446,249L1587,329L1633,186Z" fill="#4b7f4c" stroke="#4b7f4c"/><path d="M1633,186L1587,329L1585,492Z" fill="#33703d" stroke="#33703d"/><path d="M1633,186L1585,492L1631,859Z" fill="#074c20" stroke="#074c20"/><path d="M-98,342L-81,465L127,401Z" fill="#97dfa9" stroke="#97dfa9"/><path d="M127,401L-81,465L96,488Z" fill="#86d29b" stroke="#86d29b"/><path d="M127,401L96,488L261,524Z" fill="#78c98c" stroke="#78c98c"/><path d="M127,401L261,524L284,429Z" fill="#76cc89" stroke="#76cc89"/><path d="M284,429L261,524L380,531Z" fill="#64bd79" stroke="#64bd79"/><path d="M284,429L380,531L395,411Z" fill="#66c47a" stroke="#66c47a"/><path d="M395,411L380,531L472,429Z" fill="#5ec073" stroke="#5ec073"/><path d="M472,429L380,531L517,551Z" fill="#4fb267" stroke="#4fb267"/><path d="M472,429L517,551L691,467Z" fill="#46b160" stroke="#46b160"/><path d="M472,429L691,467L727,346Z" fill="#4cbd67" stroke="#4cbd67"/><path d="M727,346L691,467L788,347Z" fill="#47bb65" stroke="#47bb65"/><path d="M788,347L691,467L768,522Z" fill="#37ae5b" stroke="#37ae5b"/><path d="M788,347L768,522L948,340Z" fill="#36b25c" stroke="#36b25c"/><path d="M948,340L768,522L1033,567Z" fill="#1f9a4a" stroke="#1f9a4a"/><path d="M948,340L1033,567L1116,435Z" fill="#1b9546" stroke="#1b9546"/><path d="M1116,435L1033,567L1184,536Z" fill="#077e35" stroke="#077e35"/><path d="M1116,435L1184,536L1325,427Z" fill="#117f36" stroke="#117f36"/><path d="M1325,427L1184,536L1331,577Z" fill="#076d28" stroke="#076d28"/><path d="M1325,427L1331,577L1386,530Z" fill="#086623" stroke="#086623"/><path d="M1325,427L1386,530L1437,401Z" fill="#14712b" stroke="#14712b"/><path d="M1437,401L1386,530L1585,492Z" fill="#106327" stroke="#106327"/><path d="M1437,401L1585,492L1587,329Z" fill="#1e6c33" stroke="#1e6c33"/><path d="M-81,465L-73,807L-17,668Z" fill="#7ca883" stroke="#7ca883"/><path d="M-81,465L-17,668L96,488Z" fill="#78bf90" stroke="#78bf90"/><path d="M96,488L-17,668L50,693Z" fill="#73ab7e" stroke="#73ab7e"/><path d="M96,488L50,693L219,655Z" fill="#6ba977" stroke="#6ba977"/><path d="M96,488L219,655L261,524Z" fill="#65b47a" stroke="#65b47a"/><path d="M261,524L219,655L380,531Z" fill="#5bad6e" stroke="#5bad6e"/><path d="M380,531L219,655L366,726Z" fill="#579b5e" stroke="#579b5e"/><path d="M380,531L366,726L516,629Z" fill="#4a9755" stroke="#4a9755"/><path d="M380,531L516,629L517,551Z" fill="#44a25a" stroke="#44a25a"/><path d="M517,551L516,629L699,698Z" fill="#368f45" stroke="#368f45"/><path d="M517,551L699,698L691,467Z" fill="#2f984b" stroke="#2f984b"/><path d="M691,467L699,698L768,522Z" fill="#259547" stroke="#259547"/><path d="M768,522L699,698L824,705Z" fill="#1f8037" stroke="#1f8037"/><path d="M768,522L824,705L948,660Z" fill="#167c34" stroke="#167c34"/><path d="M768,522L948,660L1033,567Z" fill="#108137" stroke="#108137"/><path d="M1033,567L948,660L1073,626Z" fill="#076e29" stroke="#076e29"/><path d="M1033,567L1073,626L1184,536Z" fill="#00702a" stroke="#00702a"/><path d="M1184,536L1073,626L1317,688Z" fill="#005d1c" stroke="#005d1c"/><path d="M1184,536L1317,688L1331,577Z" fill="#005919" stroke="#005919"/><path d="M1331,577L1317,688L1452,727Z" fill="#004108" stroke="#004108"/><path d="M1331,577L1452,727L1386,530Z" fill="#004b0f" stroke="#004b0f"/><path d="M1386,530L1452,727L1585,492Z" fill="#004914" stroke="#004914"/><path d="M1585,492L1452,727L1591,715Z" fill="#003409" stroke="#003409"/><path d="M1585,492L1591,715L1631,859Z" fill="#002401" stroke="#002401"/><path d="M-17,668L-73,807L38,811Z" fill="#788b76" stroke="#788b76"/><path d="M-17,668L38,811L50,693Z" fill="#759372" stroke="#759372"/><path d="M50,693L38,811L176,794Z" fill="#6f876c" stroke="#6f876c"/><path d="M50,693L176,794L219,655Z" fill="#699066" stroke="#699066"/><path d="M219,655L176,794L366,726Z" fill="#5f8a5c" stroke="#5f8a5c"/><path d="M366,726L176,794L365,822Z" fill="#597b56" stroke="#597b56"/><path d="M366,726L365,822L466,798Z" fill="#4d754c" stroke="#4d754c"/><path d="M366,726L466,798L516,629Z" fill="#478146" stroke="#478146"/><path d="M516,629L466,798L698,769Z" fill="#38773a" stroke="#38773a"/><path d="M516,629L698,769L699,698Z" fill="#2f7a36" stroke="#2f7a36"/><path d="M699,698L698,769L824,705Z" fill="#226e2f" stroke="#226e2f"/><path d="M824,705L698,769L878,812Z" fill="#1b612b" stroke="#1b612b"/><path d="M824,705L878,812L948,660Z" fill="#136225" stroke="#136225"/><path d="M948,660L878,812L981,806Z" fill="#0e5522" stroke="#0e5522"/><path d="M948,660L981,806L1073,626Z" fill="#085d1d" stroke="#085d1d"/><path d="M1073,626L981,806L1182,810Z" fill="#014a17" stroke="#014a17"/><path d="M1073,626L1182,810L1317,688Z" fill="#00480f" stroke="#00480f"/><path d="M1317,688L1182,810L1269,871Z" fill="#002e0a" stroke="#002e0a"/><path d="M1317,688L1269,871L1367,883Z" fill="#002306" stroke="#002306"/><path d="M1317,688L1367,883L1452,727Z" fill="#002801" stroke="#002801"/><path d="M1452,727L1367,883L1631,859Z" fill="#001000" stroke="#001000"/><path d="M1452,727L1631,859L1591,715Z" fill="#001600" stroke="#001600"/><path d="M-73,807L1367,883L38,811Z" fill="#476847" stroke="#476847"/><path d="M38,811L1367,883L365,822Z" fill="#356038" stroke="#356038"/><path d="M38,811L365,822L176,794Z" fill="#657962" stroke="#657962"/><path d="M365,822L1367,883L1269,871Z" fill="#08401d" stroke="#08401d"/><path d="M365,822L1269,871L878,812Z" fill="#175029" stroke="#175029"/><path d="M365,822L878,812L466,798Z" fill="#37643a" stroke="#37643a"/><path d="M466,798L878,812L698,769Z" fill="#2a6133" stroke="#2a6133"/><path d="M878,812L1269,871L981,806Z" fill="#053c1a" stroke="#053c1a"/><path d="M981,806L1269,871L1182,810Z" fill="#003212" stroke="#003212"/></g></svg>